<?xml version="1.0" standalone="no"?>
<!DOCTYPE svg PUBLIC "-//W3C//DTD SVG 20010904//EN"
 "http://www.w3.org/TR/2001/REC-SVG-20010904/DTD/svg10.dtd">
<svg version="1.0"
    xmlns="http://www.w3.org/2000/svg" width="1736.000000pt" height="625.000000pt" viewBox="0 0 1736.000000 625.000000" preserveAspectRatio="xMidYMid meet">

    <g transform="translate(0.000000,625.000000) scale(0.100000,-0.100000)" fill="#000000" stroke="none">
        <path d="M2569 5561 c-23 -19 -24 -24 -24 -170 0 -98 -4 -154 -11 -161 -6 -6
-65 -18 -130 -26 -560 -67 -1058 -351 -1411 -804 -230 -295 -376 -664 -417
-1050 -10 -85 -21 -165 -26 -177 -9 -23 -13 -23 -174 -23 -130 0 -165 -3 -169
-14 -12 -30 16 -36 175 -36 140 0 158 -2 167 -17 5 -10 14 -70 20 -133 30
-293 81 -473 213 -747 215 -447 601 -807 1077 -1007 175 -73 330 -113 541
-141 68 -9 130 -21 137 -27 10 -8 13 -51 13 -159 0 -136 2 -151 20 -169 26
-26 64 -26 90 0 18 18 20 33 20 159 0 107 3 143 14 154 9 9 50 16 118 21 545
35 1099 316 1450 736 267 319 451 727 488 1080 18 172 6 160 155 160 143 0
185 12 209 59 20 38 20 74 0 112 -24 47 -66 59 -209 59 -149 0 -137 -11 -155
155 -24 216 -95 456 -198 664 -190 382 -561 754 -950 950 -222 112 -523 194
-792 217 -123 10 -120 6 -121 127 -1 177 -17 227 -75 227 -12 0 -32 -9 -45
-19z m-78 -543 c0 -7 1 -65 2 -128 3 -125 16 -166 64 -191 32 -17 88 -15 119
6 43 28 54 72 54 206 l0 122 91 -6 c204 -15 462 -85 663 -180 329 -157 643
-440 839 -757 85 -138 181 -364 237 -559 12 -40 24 -80 27 -87 11 -29 -21 -11
-107 60 -373 311 -680 484 -1066 600 -122 37 -302 76 -434 96 -142 21 -510 24
-670 6 -532 -62 -1036 -275 -1440 -610 -183 -152 -220 -179 -220 -161 0 8 25
91 55 183 159 482 430 848 810 1095 162 104 313 174 520 240 182 57 454 96
456 65z m312 -953 c195 -34 361 -119 503 -260 174 -171 263 -355 294 -610 13
-103 7 -194 -21 -313 -81 -352 -363 -635 -724 -728 -92 -23 -112 -25 -260 -21
-146 4 -169 7 -260 37 -167 54 -270 115 -394 234 -92 89 -148 167 -205 287
-72 150 -91 236 -91 414 1 134 4 161 29 249 51 183 135 323 267 452 121 116
207 170 354 221 150 53 343 67 508 38z m-883 -1 c0 -4 -42 -66 -94 -138 -200
-278 -276 -488 -276 -761 0 -290 81 -501 309 -802 71 -95 127 -173 123 -173
-18 0 -218 86 -332 144 -235 118 -432 250 -615 413 -106 95 -245 243 -245 262
0 7 32 11 95 11 90 0 96 1 126 28 25 22 32 37 33 69 2 92 -42 123 -174 123
-103 0 -107 4 -60 68 142 197 616 540 970 704 126 58 140 63 140 52z m1624
-130 c277 -90 545 -235 776 -419 47 -38 150 -134 229 -214 l145 -146 -200 -5
c-197 -5 -199 -5 -202 -27 l-3 -23 175 0 c99 0 176 -4 176 -9 0 -14 -72 -100
-136 -163 -145 -142 -475 -358 -725 -476 -109 -52 -328 -132 -359 -132 -6 0
16 30 49 68 223 249 321 479 321 758 0 288 -91 510 -315 772 -21 24 -31 42
-23 42 7 0 49 -12 92 -26z m-2694 -1220 c273 -221 590 -398 895 -499 291 -97
544 -137 870 -137 450 -1 808 81 1200 272 246 121 437 248 668 448 60 51 111
91 113 89 6 -6 -58 -236 -97 -347 -42 -119 -156 -349 -224 -450 -210 -311
-466 -529 -812 -692 -208 -97 -420 -153 -655 -174 l-78 -7 0 124 c0 147 -13
183 -73 213 -51 24 -106 10 -139 -37 -20 -29 -23 -44 -25 -156 0 -68 -6 -128
-12 -134 -7 -7 -39 -6 -103 2 -486 62 -862 249 -1198 597 -165 171 -262 310
-360 515 -71 149 -189 516 -174 541 3 5 33 -17 68 -49 34 -32 95 -85 136 -119z"/>
        <path d="M2470 3570 c-122 -44 -226 -146 -275 -268 -31 -78 -42 -195 -26 -271
47 -218 251 -382 476 -381 211 1 418 148 494 353 11 32 21 70 21 86 0 28 0 28
-77 34 -227 16 -421 157 -493 356 -25 70 -42 104 -55 107 -5 2 -35 -6 -65 -16z"/>
        <path d="M16903 4366 c-159 -164 -570 -685 -819 -1038 -69 -98 -130 -180 -135
-184 -5 -3 -42 -6 -81 -8 -95 -4 -208 -41 -323 -107 -119 -68 -178 -113 -310
-240 -70 -67 -146 -129 -210 -169 -108 -69 -270 -178 -322 -218 -47 -35 -42
-12 19 88 83 137 236 327 353 440 58 56 105 122 105 148 0 36 -38 72 -76 72
-64 0 -258 -133 -573 -394 -75 -62 -142 -116 -150 -120 -17 -11 -10 2 45 74
123 165 285 401 282 410 -10 31 -234 -168 -368 -324 -54 -64 -88 -94 -138
-122 -37 -21 -114 -68 -171 -106 -57 -38 -110 -72 -119 -75 -14 -6 121 163
276 347 47 55 62 81 60 100 -5 46 -37 35 -151 -52 -60 -46 -130 -99 -157 -118
-26 -19 -119 -89 -206 -155 -211 -158 -306 -226 -311 -222 -6 7 65 127 125
211 104 145 327 347 452 411 77 39 157 58 212 51 58 -8 62 7 9 38 -24 14 -51
19 -109 18 -189 -1 -390 -111 -616 -337 -71 -71 -143 -130 -243 -198 -79 -53
-145 -97 -148 -97 -3 0 24 41 60 91 36 49 70 101 75 115 17 44 11 94 -20 164
-16 38 -30 77 -30 88 0 11 13 49 30 84 34 71 37 96 15 137 -24 47 -74 55 -120
19 -37 -29 -55 -76 -55 -146 0 -62 -18 -100 -79 -166 -47 -52 -237 -210 -312
-260 -41 -28 -92 -64 -114 -80 -57 -44 -45 -24 114 208 177 258 236 355 222
369 -19 19 -66 -12 -167 -111 -267 -261 -496 -566 -519 -694 -6 -31 -3 -41 19
-62 50 -51 89 -31 278 142 62 57 192 163 288 234 96 72 200 153 231 180 31 26
59 48 62 48 3 0 8 -12 11 -26 8 -30 -10 -64 -115 -219 -152 -226 -179 -276
-179 -325 0 -48 14 -69 53 -83 31 -11 66 11 171 112 91 85 230 205 261 223 6
3 -8 -31 -29 -75 -22 -45 -41 -103 -44 -129 -4 -40 -1 -50 21 -72 29 -29 53
-32 100 -12 42 17 157 107 296 229 61 53 113 97 115 97 3 0 -15 -35 -40 -79
-65 -114 -85 -178 -70 -215 13 -33 53 -51 90 -42 13 3 57 37 97 74 58 54 240
203 338 276 18 13 14 5 -40 -74 -57 -85 -90 -158 -92 -202 -2 -33 3 -44 26
-61 26 -20 30 -20 54 -7 15 8 57 57 93 108 93 129 177 221 276 300 73 59 116
88 263 176 41 24 41 23 -47 -96 -110 -151 -192 -332 -192 -422 0 -47 6 -58 38
-75 36 -19 65 -7 139 60 37 33 104 86 148 117 44 31 110 80 146 109 36 29 69
53 72 53 4 0 -9 -26 -28 -58 -99 -170 -100 -292 -2 -292 17 0 47 9 65 20 40
25 294 223 377 295 87 75 91 74 36 -9 -114 -175 -134 -274 -60 -300 43 -15 71
-1 175 89 54 48 139 121 188 163 48 42 94 80 102 85 7 4 -7 -30 -31 -75 -75
-143 -82 -214 -23 -244 26 -13 38 -14 69 -5 41 13 184 119 314 235 44 39 88
77 97 85 10 7 -9 -39 -42 -103 -69 -133 -75 -172 -34 -205 15 -12 37 -21 49
-21 25 0 95 52 190 139 33 31 135 113 225 183 214 165 226 175 218 183 -11 11
-172 -77 -308 -170 -81 -55 -120 -79 -120 -71 0 6 206 258 292 359 32 37 58
71 58 75 0 5 -6 17 -14 27 -20 27 -36 18 -233 -132 -408 -310 -582 -437 -589
-430 -7 6 93 167 152 244 71 92 228 242 333 317 112 80 186 109 278 110 83 1
94 14 36 42 -53 24 -167 22 -258 -6 -150 -47 -276 -131 -445 -296 -65 -63
-145 -130 -185 -154 -38 -23 -109 -69 -157 -101 -49 -33 -91 -59 -94 -59 -3 0
15 26 41 58 272 338 952 1295 1171 1648 55 90 144 255 144 269 0 22 -42 -10
-127 -99z m-1003 -1294 c0 -4 -29 -45 -64 -92 -75 -100 -256 -279 -376 -372
-124 -96 -312 -230 -316 -225 -7 7 86 155 162 258 98 132 236 269 341 337 101
66 253 123 253 94z"/>
        <path d="M9145 4375 c-70 -71 -266 -307 -433 -521 l-39 -50 -99 -17 c-55 -10
-150 -24 -213 -32 -185 -24 -386 -76 -378 -98 6 -19 175 -20 385 -2 106 10
195 15 197 13 2 -2 -69 -101 -158 -219 -408 -542 -755 -1046 -773 -1121 -10
-45 3 -78 38 -93 41 -17 70 -6 123 45 58 55 367 310 377 310 4 0 -2 -18 -13
-40 -25 -47 -49 -134 -49 -175 0 -47 35 -112 69 -129 64 -34 188 -11 309 56
246 137 426 327 478 504 19 66 14 163 -11 201 -22 34 -37 29 -30 -10 15 -78
-53 -193 -209 -354 -152 -157 -333 -283 -407 -283 -24 0 -24 13 1 85 66 193
356 498 569 598 57 28 76 32 140 31 l75 -1 -29 22 c-71 58 -231 43 -385 -35
-95 -48 -201 -130 -325 -250 -66 -64 -138 -127 -160 -140 -22 -13 -93 -59
-159 -102 -65 -44 -120 -77 -122 -75 -3 3 91 132 207 288 301 401 470 634 573
786 87 128 91 132 130 138 243 33 577 82 781 115 138 23 318 52 400 65 83 13
210 36 284 50 73 14 135 25 137 25 2 0 4 3 4 8 0 9 -277 -10 -570 -38 -446
-42 -721 -70 -844 -85 -71 -9 -130 -14 -133 -12 -2 3 56 96 130 208 198 300
262 419 227 419 -7 0 -49 -38 -95 -85z"/>
        <path d="M13095 4332 c-314 -211 -867 -619 -1120 -826 -418 -343 -799 -705
-919 -873 -16 -24 -32 -41 -34 -38 -8 8 202 407 647 1227 55 103 101 199 101
213 0 34 -50 85 -83 85 -14 0 -47 -17 -74 -38 -224 -178 -901 -853 -1228
-1227 -38 -44 -72 -82 -75 -85 -3 -3 -41 -48 -86 -100 -346 -410 -747 -965
-732 -1011 5 -16 180 169 418 441 423 485 710 792 1173 1257 193 194 352 351
354 349 1 -1 -25 -54 -58 -117 -127 -239 -319 -629 -373 -761 -118 -285 -189
-526 -168 -564 9 -16 14 -12 39 30 143 244 472 562 994 962 222 170 977 731
1018 757 44 27 48 33 -146 -216 -487 -624 -774 -1079 -922 -1463 -69 -176 -96
-349 -69 -428 18 -55 35 -56 43 -4 36 213 134 410 443 888 202 313 753 1043
1017 1350 135 157 155 186 155 231 0 54 -34 89 -87 89 -32 -1 -69 -21 -228
-128z"/>
        <path d="M8585 4368 c-82 -9 -912 -112 -997 -124 l-48 -7 11 32 c12 33 7 61
-11 61 -5 0 -39 -25 -76 -56 l-66 -56 -106 -14 c-180 -24 -505 -73 -752 -115
-555 -94 -840 -163 -840 -205 0 -18 35 -24 156 -24 216 0 550 40 1087 129 152
26 277 44 277 40 0 -4 -32 -42 -71 -85 -40 -44 -173 -199 -295 -346 -194 -232
-229 -269 -262 -277 -20 -6 -127 -34 -237 -62 -261 -67 -375 -109 -375 -141 0
-15 104 -4 339 38 107 19 195 33 196 32 2 -2 -42 -59 -98 -128 -686 -856
-1234 -1616 -1194 -1656 11 -12 66 37 145 129 44 50 140 162 213 247 152 175
329 385 703 835 143 171 321 385 398 476 l139 166 107 22 c252 52 586 142 655
178 49 25 22 36 -70 29 -79 -6 -537 -81 -568 -93 -8 -3 -15 -2 -15 1 0 4 53
73 117 154 108 135 354 466 378 507 8 13 81 31 335 81 800 158 871 173 1008
215 86 27 -13 36 -183 17z"/>
        <path d="M13034 3531 c-70 -43 -94 -111 -53 -152 47 -47 173 0 205 77 18 44
18 50 -6 74 -27 27 -103 27 -146 1z"/>
        <path d="M7660 3114 c-221 -57 -544 -332 -654 -556 -115 -235 -26 -377 195
-312 249 74 561 364 610 566 14 61 7 160 -15 193 -23 35 -36 31 -29 -9 13 -82
-68 -218 -221 -371 -50 -49 -122 -114 -161 -143 -81 -60 -197 -122 -231 -122
-21 0 -23 4 -18 33 16 94 169 323 301 448 78 75 193 157 273 197 66 32 84 36
147 36 63 -1 71 1 60 14 -34 42 -151 54 -257 26z"/>
    </g>
</svg>
